#!OML:ASF X:\für Bonn\!DataBase\2005_08_12_Daniel\c3d\Daniel.ASF
:FULLY-SPECIFIED
:DEGREES
82
root -3.62471 17.3131 -0.659559 369.844 -79.5467 -393.856
lowerback 40.6507 -15.2984 -8.7929
upperback 13.3806 -24.6243 -1.90204
thorax -1.13398 -13.4735 10.0604
lowerneck 6.13895 11.6277 -3.59418
upperneck 14.6195 14.6468 -1.65509
head 3.60405 6.59662 0.18442
rclavicle 1.19271e-015 4.92986e-014
rhumerus -50.1385 7.71635 -73.7364
rradius 67.3247
rwrist -0.314248
rhand -31.1538 39.0691
rfingers 7.12502
rthumb -4.43162 9.13543
lclavicle 1.19271e-015 4.92986e-014
lhumerus 41.118 1.65605 76.3655
lradius 132.643
lwrist 46.9012
lhand -4.77392 -13.5916
lfingers 7.12502
lthumb 21.0106 15.2903
rfemur -64.9755 -20.5434 18.6301
rtibia 112.772
rfoot 3.14466 9.10249
rtoes -10.8309
lfemur 9.13647 -9.09401 -21.4657
ltibia 31.1177
lfoot -18.8986 0.171856
ltoes 7.11278
83
root -3.63583 17.3159 -0.66002 370.4 -79.865 -393.977
lowerback 39.7952 -15.1463 -8.73982
upperback 13.1954 -24.3139 -1.79801
thorax -1.1107 -13.2914 9.94097
lowerneck 6.33749 11.5084 -3.65703
upperneck 14.7528 14.4651 -1.7246
head 3.61863 6.49047 0.162705
rclavicle 5.64548e-014 2.54444e-014
rhumerus -49.3049 8.174 -73.973
rradius 68.2032
rwrist -0.572727
rhand -31.1512 39.2197
rfingers 7.12502
rthumb -4.42914 9.28599
lclavicle 5.64548e-014 2.54444e-014
lhumerus 40.4163 1.49552 76.3925
lradius 132.48
lwrist 46.682
lhand -4.90906 -13.7928
lfingers 7.12502
lthumb 20.8808 15.1034
rfemur -62.7619 -19.9776 17.9648
rtibia 111.165
rfoot 3.01931 8.09536
rtoes -10.1283
lfemur 8.73694 -9.07683 -21.5706
ltibia 31.1888
lfoot -19.1499 0.43463
ltoes 7.00706
84
root -3.64801 17.3185 -0.661596 370.96 -80.1816 -394.111
lowerback 38.9544 -14.9844 -8.6699
upperback 12.9982 -23.9854 -1.68471
thorax -1.10368 -13.0978 9.82494
lowerneck 6.42021 11.3735 -3.68486
upperneck 14.988 14.2744 -1.7972
head 3.69331 6.37634 0.145641
rclavicle 5.64548e-014 -8.42847e-014
rhumerus -48.445 8.56391 -74.1752
rradius 69.0932
rwrist -0.888946
rhand -30.9649 39.3985
rfingers 7.12502
rthumb -4.24924 9.46112
lclavicle 5.64548e-014 -8.42847e-014
lhumerus 39.6897 1.32329 76.4742
lradius 132.268
lwrist 46.3847
lhand -5.09925 -14.1068
lfingers 7.12502
lthumb 20.6981 14.8094
rfemur -60.5432 -19.3778 17.3394
rtibia 109.475
rfoot 2.99311 7.05216
rtoes -9.61334
lfemur 8.35809 -9.07997 -21.6797
ltibia 31.2383
lfoot -19.4099 0.726208
ltoes 6.88114
85
root -3.66088 17.3215 -0.664901 371.467 -80.5026 -394.242
lowerback 38.0977 -14.8207 -8.60404
upperback 12.8965 -23.6505 -1.63962
thorax -1.12947 -12.9003 9.7124
lowerneck 6.47272 11.2407 -3.69839
upperneck 15.2474 14.087 -1.8368
head 3.78049 6.26459 0.139138
rclavicle -3.37934e-014 -1.59028e-015
rhumerus -47.6056 8.9993 -74.3749
rradius 69.9934
rwrist -1.18881
rhand -30.7354 39.6648
rfingers 7.12502
rthumb -4.02764 9.72311
lclavicle -3.37934e-014 -1.59028e-015
lhumerus 38.9372 1.17864 76.5799
lradius 132.05
lwrist 46.1191
lhand -5.25679 -14.2955
lfingers 7.12502
lthumb 20.5467 14.6372
rfemur -58.255 -18.7238 16.7424
rtibia 107.674
rfoot 3.04064 5.96146
rtoes -9.18158
lfemur 8.04614 -9.04927 -21.7856
ltibia 31.2706
lfoot -19.6457 1.01122
ltoes 6.7311
86
root -3.67348 17.3244 -0.669357 371.942 -80.825 -394.316
lowerback 37.3337 -14.6496 -8.54783
upperback 12.6718 -23.3209 -1.53129
thorax -1.16454 -12.7009 9.61767
lowerneck 6.52073 11.112 -3.75929
upperneck 15.4988 13.9034 -1.87442
head 3.86224 6.15243 0.139947
rclavicle -7.55382e-014 1.1609e-013
rhumerus -46.8019 9.45507 -74.5406
rradius 70.9546
rwrist -1.4814
rhand -30.4136 39.8905
rfingers 7.12502
rthumb -3.71686 9.94314
lclavicle -7.55382e-014 1.1609e-013
lhumerus 38.1852 1.05049 76.6998
lradius 131.792
lwrist 45.7417
lhand -5.46547 -14.4348
lfingers 7.12502
lthumb 20.3461 14.5194
rfemur -56.0416 -18.0692 16.1893
rtibia 105.804
rfoot 3.14679 4.86879
rtoes -8.72215
lfemur 7.69701 -9.04793 -21.9016
ltibia 31.3143
lfoot -19.8824 1.29094
ltoes 6.6833
87
root -3.68691 17.325 -0.675643 372.482 -81.1534 -394.467
lowerback 36.5929 -14.4712 -8.47469
upperback 12.4444 -22.9786 -1.41874
thorax -1.21044 -12.4946 9.52267
lowerneck 6.53639 10.9933 -3.90097
upperneck 15.7687 13.7273 -1.85466
head 3.9459 6.04045 0.173092
rclavicle -1.63799e-013 1.25632e-013
rhumerus -46.0087 9.91185 -74.67
rradius 71.923
rwrist -1.82007
rhand -30.0594 40.2727
rfingers 7.12502
rthumb -3.37486 10.3197
lclavicle -1.63799e-013 1.25632e-013
lhumerus 37.4215 0.997144 76.8099
lradius 131.58
lwrist 45.4667
lhand -5.64473 -14.4663
lfingers 7.12502
lthumb 20.1738 14.5062
rfemur -53.845 -17.3675 15.6912
rtibia 103.878
rfoot 3.23699 3.81306
rtoes -8.08441
lfemur 7.34496 -9.0371 -22.0059
ltibia 31.3881
lfoot -20.1379 1.58513
ltoes 6.57538
88
root -3.70089 17.3245 -0.684184 373.051 -81.4752 -394.643
lowerback 35.8383 -14.2925 -8.38673
upperback 12.2257 -22.6309 -1.32357
thorax -1.24885 -12.2852 9.3994
lowerneck 6.61163 10.8696 -4.08344
upperneck 15.9647 13.5343 -1.79019
head 3.98567 5.92398 0.220421
rclavicle 1.43125e-013 -5.88403e-014
rhumerus -45.2431 10.3754 -74.8455
rradius 72.8854
rwrist -2.05741
rhand -29.7902 40.5256
rfingers 7.12502
rthumb -3.11486 10.5686
lclavicle 1.43125e-013 -5.88403e-014
lhumerus 36.5949 1.00243 76.8533
lradius 131.41
lwrist 45.2279
lhand -5.81845 -14.3859
lfingers 7.12502
lthumb 20.0069 14.6041
rfemur -51.7062 -16.6979 15.2462
rtibia 101.925
rfoot 3.23755 2.83447
rtoes -7.74351
lfemur 6.959 -9.05549 -22.1024
ltibia 31.5179
lfoot -20.4207 1.85579
ltoes 6.56261
89
root -3.71575 17.3209 -0.694273 373.367 -81.81 -394.551
lowerback 35.0823 -14.1037 -8.34385
upperback 11.9832 -22.2841 -1.22595
thorax -1.29115 -12.0758 9.29954
lowerneck 6.72297 10.7605 -4.26854
upperneck 16.1646 13.3559 -1.73314
head 4.02169 5.81328 0.264109
rclavicle -7.63333e-014 2.78299e-014
rhumerus -44.453 10.9409 -75.018
rradius 73.7949
rwrist -2.31877
rhand -29.5943 40.6469
rfingers 7.12502
rthumb -2.92568 10.6872
lclavicle -7.63333e-014 2.78299e-014
lhumerus 35.7113 1.02653 76.8968
lradius 131.262
lwrist 45.0218
lhand -5.99299 -14.249
lfingers 7.12502
lthumb 19.8391 14.7584
rfemur -49.6665 -16.0307 14.7896
rtibia 99.9729
rfoot 3.18369 1.9481
rtoes -7.96734
lfemur 6.53847 -9.08828 -22.2462
ltibia 31.6924
lfoot -20.7089 2.13159
ltoes 6.50192
